<?xml version="1.0" encoding="iso-8859-1"?>
<!-- Generator: Adobe Illustrator 16.0.0, SVG Export Plug-In . SVG Version: 6.00 Build 0)  -->
<!DOCTYPE svg PUBLIC "-//W3C//DTD SVG 1.1//EN" "http://www.w3.org/Graphics/SVG/1.1/DTD/svg11.dtd">
<svg version="1.1" id="Capa_1" xmlns="http://www.w3.org/2000/svg" xmlns:xlink="http://www.w3.org/1999/xlink" x="0px" y="0px"
	 width="418.473px" height="418.473px" viewBox="0 0 418.473 418.473" style="enable-background:new 0 0 418.473 418.473;"
	 xml:space="preserve">
<g>
	<path d="M351.759,168.612c37.312,10.768,74.636-38.03,55.252-106.211C387.638-5.77,316.588,3.554,304.396,12.17
		c0,0-70.322-29.424-111.584,3.232c0,0-49.515-48.435-107.645,59.201c0,0-20.454,107.645,64.585,89.342
		c49.515-18.302-17.222-71.039,12.919-109.796c0,0,8.616,54.898,30.141,73.2c0,0-30.141,34.444,9.687,57.051
		c0,0-15.071,54.898-76.424,85.039s-39.837,88.271-43.06,97.958c0,0-78.575,35.525-75.343-45.211c0,0-20.454,105.493,89.342,85.039
		c0,0-2.582,9.687,7.315,10.768c9.907,1.08,128.31,0,128.31,0s37.677-5.384,0-41.979c0,0,19.919-15.07,19.374-23.687l0.01,62.434
		c0,0,46.272,4.849,54.343-0.535c8.071-5.384,8.616-21.525-9.687-25.838c-18.303-4.313,17.433-173.139-7.688-198.26
		c0,0,31.9-20.081,17.548-57.395c0,0,30.141-35.878,20.808-89.705C361.092,86.805,305.124,145.652,351.759,168.612z"/>
</g>
<g>
</g>
<g>
</g>
<g>
</g>
<g>
</g>
<g>
</g>
<g>
</g>
<g>
</g>
<g>
</g>
<g>
</g>
<g>
</g>
<g>
</g>
<g>
</g>
<g>
</g>
<g>
</g>
<g>
</g>
</svg>
